<?xml version="1.0" encoding="UTF-8" standalone="no"?>
<!-- Generator: Adobe Illustrator 22.1.0, SVG Export Plug-In . SVG Version: 6.00 Build 0)  -->

<svg
   xmlns:dc="http://purl.org/dc/elements/1.1/"
   xmlns:cc="http://creativecommons.org/ns#"
   xmlns:rdf="http://www.w3.org/1999/02/22-rdf-syntax-ns#"
   xmlns:svg="http://www.w3.org/2000/svg"
   xmlns="http://www.w3.org/2000/svg"
   xmlns:xlink="http://www.w3.org/1999/xlink"
   xmlns:sodipodi="http://sodipodi.sourceforge.net/DTD/sodipodi-0.dtd"
   xmlns:inkscape="http://www.inkscape.org/namespaces/inkscape"
   version="1.1"
   id="Capa_1"
   x="0px"
   y="0px"
   viewBox="0 0 2813.9 1445.1"
   style="enable-background:new 0 0 2813.9 1445.1;"
   xml:space="preserve"
   sodipodi:docname="schedule.svg"
   inkscape:version="0.92.3 (2405546, 2018-03-11)"><metadata
   id="metadata9415"><rdf:RDF><cc:Work
       rdf:about=""><dc:format>image/svg+xml</dc:format><dc:type
         rdf:resource="http://purl.org/dc/dcmitype/StillImage" /><dc:title></dc:title></cc:Work></rdf:RDF></metadata><defs
   id="defs9413" /><sodipodi:namedview
   pagecolor="#ffffff"
   bordercolor="#666666"
   borderopacity="1"
   objecttolerance="10"
   gridtolerance="10"
   guidetolerance="10"
   inkscape:pageopacity="0"
   inkscape:pageshadow="2"
   inkscape:window-width="1366"
   inkscape:window-height="705"
   id="namedview9411"
   showgrid="false"
   inkscape:zoom="0.59103565"
   inkscape:cx="1426.0273"
   inkscape:cy="674.85674"
   inkscape:window-x="-4"
   inkscape:window-y="-4"
   inkscape:window-maximized="1"
   inkscape:current-layer="g9408" />
<style
   type="text/css"
   id="style8352">
	.st0{opacity:0;clip-path:url(#SVGID_2_);fill-rule:evenodd;clip-rule:evenodd;fill:#FFFFFF;}
	.st1{fill:#3B30F4;}
	.st2{fill:#6A62F6;}
	.st3{fill:#9C97F9;}
	.st4{fill:none;stroke:#3B31F4;stroke-miterlimit:10;}
	.st5{fill:#FFFFFF;}
	.st6{font-family:'Apercu-Bold';}
	.st7{font-size:32.7203px;}
	.st8{font-family:'Apercu-Light';}
	.st9{font-size:25.7088px;}
	.st10{letter-spacing:-1;}
	.st11{letter-spacing:-2;}
	.st12{fill:#1D1D1B;}
	.st13{font-size:23.3717px;}
	.st14{fill:#E74F52;}
</style>
<g
   id="g8362">
	<defs
   id="defs8355">
		<rect
   id="SVGID_1_"
   x="-1560.5"
   y="-3198.4"
   width="499"
   height="373" />
	</defs>
	<clipPath
   id="SVGID_2_">
		<use
   xlink:href="#SVGID_1_"
   style="overflow:visible;"
   id="use8357" />
	</clipPath>
	<rect
   x="-1560.5"
   y="-3198.4"
   class="st0"
   width="499"
   height="373"
   clip-path="url(#SVGID_2_)"
   id="rect8360" />
</g>
<g
   id="g9408">
	<rect
   x="864.9"
   y="383.9"
   class="st1"
   width="348.7"
   height="88.7"
   id="rect8364" />
	<rect
   x="1213.6"
   y="383.9"
   class="st2"
   width="178.9"
   height="88.7"
   id="rect8366" />
	<path
   class="st3"
   d="M1856.2,425.8h92.8v46.8h-92.8V425.8z M1763.5,425.8h92.8v46.8h-92.8V425.8z M1670.7,425.8h92.8v46.8h-92.8   V425.8z M1578,425.8h92.8v46.8H1578V425.8z M1485.2,425.8h92.8v46.8h-92.8V425.8z M1392.5,425.8h92.8v46.8h-92.8V425.8z    M1763.5,383.9H1949v41.9h-185.5V383.9z M1392.5,383.9h371v41.9h-371V383.9z"
   id="path8368" />
	<line
   class="st4"
   x1="864.9"
   y1="526.1"
   x2="864.9"
   y2="473.8"
   id="line8370" />
	<line
   class="st4"
   x1="1213.6"
   y1="526.1"
   x2="1213.6"
   y2="473.8"
   id="line8372" />
	<line
   class="st4"
   x1="1392.5"
   y1="526.1"
   x2="1392.5"
   y2="473.8"
   id="line8374" />
	<line
   class="st4"
   x1="1485.2"
   y1="526.1"
   x2="1485.2"
   y2="473.8"
   id="line8376" />
	<line
   class="st4"
   x1="1578"
   y1="526.1"
   x2="1578"
   y2="473.8"
   id="line8378" />
	<line
   class="st4"
   x1="1670.7"
   y1="526.1"
   x2="1670.7"
   y2="473.8"
   id="line8380" />
	<line
   class="st4"
   x1="1763.5"
   y1="526.1"
   x2="1763.5"
   y2="473.8"
   id="line8382" />
	<line
   class="st4"
   x1="1856.2"
   y1="526.1"
   x2="1856.2"
   y2="473.8"
   id="line8384" />
	<line
   class="st4"
   x1="1949"
   y1="526.1"
   x2="1949"
   y2="473.8"
   id="line8386" />
	<line
   class="st4"
   x1="863.7"
   y1="527.2"
   x2="1213.6"
   y2="527.2"
   id="line8388" />
	<line
   class="st4"
   x1="864.9"
   y1="580.7"
   x2="864.9"
   y2="528.4"
   id="line8390" />
	<line
   class="st4"
   x1="1213.6"
   y1="527.2"
   x2="1392.5"
   y2="527.2"
   id="line8392" />
	<line
   class="st4"
   x1="1213.6"
   y1="580.7"
   x2="1213.6"
   y2="528.4"
   id="line8394" />
	<line
   class="st4"
   x1="1392.5"
   y1="527.2"
   x2="1485.2"
   y2="527.2"
   id="line8396" />
	<line
   class="st4"
   x1="1392.5"
   y1="580.7"
   x2="1392.5"
   y2="528.4"
   id="line8398" />
	<line
   class="st4"
   x1="1485.2"
   y1="527.2"
   x2="1578"
   y2="527.2"
   id="line8400" />
	<line
   class="st4"
   x1="1485.2"
   y1="580.7"
   x2="1485.2"
   y2="528.4"
   id="line8402" />
	<line
   class="st4"
   x1="1578"
   y1="527.2"
   x2="1670.7"
   y2="527.2"
   id="line8404" />
	<line
   class="st4"
   x1="1578"
   y1="580.7"
   x2="1578"
   y2="528.4"
   id="line8406" />
	<line
   class="st4"
   x1="1670.7"
   y1="527.2"
   x2="1763.5"
   y2="527.2"
   id="line8408" />
	<line
   class="st4"
   x1="1670.7"
   y1="580.7"
   x2="1670.7"
   y2="528.4"
   id="line8410" />
	<line
   class="st4"
   x1="1763.5"
   y1="527.2"
   x2="1856.2"
   y2="527.2"
   id="line8412" />
	<line
   class="st4"
   x1="1763.5"
   y1="580.7"
   x2="1763.5"
   y2="528.4"
   id="line8414" />
	<line
   class="st4"
   x1="1856.2"
   y1="527.2"
   x2="1950.1"
   y2="527.2"
   id="line8416" />
	<line
   class="st4"
   x1="1856.2"
   y1="580.7"
   x2="1856.2"
   y2="528.4"
   id="line8418" />
	<line
   class="st4"
   x1="1949"
   y1="580.7"
   x2="1949"
   y2="528.4"
   id="line8420" />
	<line
   class="st4"
   x1="863.7"
   y1="581.9"
   x2="1213.6"
   y2="581.9"
   id="line8422" />
	<line
   class="st4"
   x1="864.9"
   y1="635.3"
   x2="864.9"
   y2="583"
   id="line8424" />
	<line
   class="st4"
   x1="1213.6"
   y1="581.9"
   x2="1392.5"
   y2="581.9"
   id="line8426" />
	<line
   class="st4"
   x1="1213.6"
   y1="635.3"
   x2="1213.6"
   y2="583"
   id="line8428" />
	<line
   class="st4"
   x1="1392.5"
   y1="581.9"
   x2="1485.2"
   y2="581.9"
   id="line8430" />
	<line
   class="st4"
   x1="1392.5"
   y1="635.3"
   x2="1392.5"
   y2="583"
   id="line8432" />
	<line
   class="st4"
   x1="1485.2"
   y1="581.9"
   x2="1578"
   y2="581.9"
   id="line8434" />
	<line
   class="st4"
   x1="1485.2"
   y1="635.3"
   x2="1485.2"
   y2="583"
   id="line8436" />
	<line
   class="st4"
   x1="1578"
   y1="581.9"
   x2="1670.7"
   y2="581.9"
   id="line8438" />
	<line
   class="st4"
   x1="1578"
   y1="635.3"
   x2="1578"
   y2="583"
   id="line8440" />
	<line
   class="st4"
   x1="1670.7"
   y1="581.9"
   x2="1763.5"
   y2="581.9"
   id="line8442" />
	<line
   class="st4"
   x1="1670.7"
   y1="635.3"
   x2="1670.7"
   y2="583"
   id="line8444" />
	<line
   class="st4"
   x1="1763.5"
   y1="581.9"
   x2="1856.2"
   y2="581.9"
   id="line8446" />
	<line
   class="st4"
   x1="1763.5"
   y1="635.3"
   x2="1763.5"
   y2="583"
   id="line8448" />
	<line
   class="st4"
   x1="1856.2"
   y1="581.9"
   x2="1950.1"
   y2="581.9"
   id="line8450" />
	<line
   class="st4"
   x1="1856.2"
   y1="635.3"
   x2="1856.2"
   y2="583"
   id="line8452" />
	<line
   class="st4"
   x1="1949"
   y1="635.3"
   x2="1949"
   y2="583"
   id="line8454" />
	<line
   class="st4"
   x1="863.7"
   y1="636.5"
   x2="1213.6"
   y2="636.5"
   id="line8456" />
	<line
   class="st4"
   x1="864.9"
   y1="689.9"
   x2="864.9"
   y2="637.7"
   id="line8458" />
	<line
   class="st4"
   x1="1213.6"
   y1="636.5"
   x2="1392.5"
   y2="636.5"
   id="line8460" />
	<line
   class="st4"
   x1="1213.6"
   y1="689.9"
   x2="1213.6"
   y2="637.7"
   id="line8462" />
	<line
   class="st4"
   x1="1392.5"
   y1="636.5"
   x2="1485.2"
   y2="636.5"
   id="line8464" />
	<line
   class="st4"
   x1="1392.5"
   y1="689.9"
   x2="1392.5"
   y2="637.7"
   id="line8466" />
	<line
   class="st4"
   x1="1485.2"
   y1="636.5"
   x2="1578"
   y2="636.5"
   id="line8468" />
	<line
   class="st4"
   x1="1485.2"
   y1="689.9"
   x2="1485.2"
   y2="637.7"
   id="line8470" />
	<line
   class="st4"
   x1="1578"
   y1="636.5"
   x2="1670.7"
   y2="636.5"
   id="line8472" />
	<line
   class="st4"
   x1="1578"
   y1="689.9"
   x2="1578"
   y2="637.7"
   id="line8474" />
	<line
   class="st4"
   x1="1670.7"
   y1="636.5"
   x2="1763.5"
   y2="636.5"
   id="line8476" />
	<line
   class="st4"
   x1="1670.7"
   y1="689.9"
   x2="1670.7"
   y2="637.7"
   id="line8478" />
	<line
   class="st4"
   x1="1763.5"
   y1="636.5"
   x2="1856.2"
   y2="636.5"
   id="line8480" />
	<line
   class="st4"
   x1="1763.5"
   y1="689.9"
   x2="1763.5"
   y2="637.7"
   id="line8482" />
	<line
   class="st4"
   x1="1856.2"
   y1="636.5"
   x2="1950.1"
   y2="636.5"
   id="line8484" />
	<line
   class="st4"
   x1="1856.2"
   y1="689.9"
   x2="1856.2"
   y2="637.7"
   id="line8486" />
	<line
   class="st4"
   x1="1949"
   y1="689.9"
   x2="1949"
   y2="637.7"
   id="line8488" />
	<line
   class="st4"
   x1="863.7"
   y1="691.1"
   x2="1213.6"
   y2="691.1"
   id="line8490" />
	<line
   class="st4"
   x1="864.9"
   y1="744.6"
   x2="864.9"
   y2="692.3"
   id="line8492" />
	<line
   class="st4"
   x1="1213.6"
   y1="691.1"
   x2="1392.5"
   y2="691.1"
   id="line8494" />
	<line
   class="st4"
   x1="1213.6"
   y1="744.6"
   x2="1213.6"
   y2="692.3"
   id="line8496" />
	<line
   class="st4"
   x1="1392.5"
   y1="691.1"
   x2="1485.2"
   y2="691.1"
   id="line8498" />
	<line
   class="st4"
   x1="1392.5"
   y1="744.6"
   x2="1392.5"
   y2="692.3"
   id="line8500" />
	<line
   class="st4"
   x1="1485.2"
   y1="691.1"
   x2="1578"
   y2="691.1"
   id="line8502" />
	<line
   class="st4"
   x1="1485.2"
   y1="744.6"
   x2="1485.2"
   y2="692.3"
   id="line8504" />
	<line
   class="st4"
   x1="1578"
   y1="691.1"
   x2="1670.7"
   y2="691.1"
   id="line8506" />
	<line
   class="st4"
   x1="1578"
   y1="744.6"
   x2="1578"
   y2="692.3"
   id="line8508" />
	<line
   class="st4"
   x1="1670.7"
   y1="691.1"
   x2="1763.5"
   y2="691.1"
   id="line8510" />
	<line
   class="st4"
   x1="1670.7"
   y1="744.6"
   x2="1670.7"
   y2="692.3"
   id="line8512" />
	<line
   class="st4"
   x1="1763.5"
   y1="691.1"
   x2="1856.2"
   y2="691.1"
   id="line8514" />
	<line
   class="st4"
   x1="1763.5"
   y1="744.6"
   x2="1763.5"
   y2="692.3"
   id="line8516" />
	<line
   class="st4"
   x1="1856.2"
   y1="691.1"
   x2="1950.1"
   y2="691.1"
   id="line8518" />
	<line
   class="st4"
   x1="1856.2"
   y1="744.6"
   x2="1856.2"
   y2="692.3"
   id="line8520" />
	<line
   class="st4"
   x1="1949"
   y1="744.6"
   x2="1949"
   y2="692.3"
   id="line8522" />
	<line
   class="st4"
   x1="863.7"
   y1="745.7"
   x2="1213.6"
   y2="745.7"
   id="line8524" />
	<line
   class="st4"
   x1="864.9"
   y1="799.2"
   x2="864.9"
   y2="746.9"
   id="line8526" />
	<line
   class="st4"
   x1="1213.6"
   y1="745.7"
   x2="1392.5"
   y2="745.7"
   id="line8528" />
	<line
   class="st4"
   x1="1213.6"
   y1="799.2"
   x2="1213.6"
   y2="746.9"
   id="line8530" />
	<line
   class="st4"
   x1="1392.5"
   y1="745.7"
   x2="1485.2"
   y2="745.7"
   id="line8532" />
	<line
   class="st4"
   x1="1392.5"
   y1="799.2"
   x2="1392.5"
   y2="746.9"
   id="line8534" />
	<line
   class="st4"
   x1="1485.2"
   y1="745.7"
   x2="1578"
   y2="745.7"
   id="line8536" />
	<line
   class="st4"
   x1="1485.2"
   y1="799.2"
   x2="1485.2"
   y2="746.9"
   id="line8538" />
	<line
   class="st4"
   x1="1578"
   y1="745.7"
   x2="1670.7"
   y2="745.7"
   id="line8540" />
	<line
   class="st4"
   x1="1578"
   y1="799.2"
   x2="1578"
   y2="746.9"
   id="line8542" />
	<line
   class="st4"
   x1="1670.7"
   y1="745.7"
   x2="1763.5"
   y2="745.7"
   id="line8544" />
	<line
   class="st4"
   x1="1670.7"
   y1="799.2"
   x2="1670.7"
   y2="746.9"
   id="line8546" />
	<line
   class="st4"
   x1="1763.5"
   y1="745.7"
   x2="1856.2"
   y2="745.7"
   id="line8548" />
	<line
   class="st4"
   x1="1763.5"
   y1="799.2"
   x2="1763.5"
   y2="746.9"
   id="line8550" />
	<line
   class="st4"
   x1="1856.2"
   y1="745.7"
   x2="1950.1"
   y2="745.7"
   id="line8552" />
	<line
   class="st4"
   x1="1856.2"
   y1="799.2"
   x2="1856.2"
   y2="746.9"
   id="line8554" />
	<line
   class="st4"
   x1="1949"
   y1="799.2"
   x2="1949"
   y2="746.9"
   id="line8556" />
	<line
   class="st4"
   x1="863.7"
   y1="800.4"
   x2="1213.6"
   y2="800.4"
   id="line8558" />
	<line
   class="st4"
   x1="864.9"
   y1="875"
   x2="864.9"
   y2="801.5"
   id="line8560" />
	<line
   class="st4"
   x1="1213.6"
   y1="800.4"
   x2="1392.5"
   y2="800.4"
   id="line8562" />
	<line
   class="st4"
   x1="1213.6"
   y1="875"
   x2="1213.6"
   y2="801.5"
   id="line8564" />
	<line
   class="st4"
   x1="1392.5"
   y1="800.4"
   x2="1485.2"
   y2="800.4"
   id="line8566" />
	<line
   class="st4"
   x1="1392.5"
   y1="875"
   x2="1392.5"
   y2="801.5"
   id="line8568" />
	<line
   class="st4"
   x1="1485.2"
   y1="800.4"
   x2="1578"
   y2="800.4"
   id="line8570" />
	<line
   class="st4"
   x1="1485.2"
   y1="875"
   x2="1485.2"
   y2="801.5"
   id="line8572" />
	<line
   class="st4"
   x1="1578"
   y1="800.4"
   x2="1670.7"
   y2="800.4"
   id="line8574" />
	<line
   class="st4"
   x1="1578"
   y1="875"
   x2="1578"
   y2="801.5"
   id="line8576" />
	<line
   class="st4"
   x1="1670.7"
   y1="800.4"
   x2="1763.5"
   y2="800.4"
   id="line8578" />
	<line
   class="st4"
   x1="1670.7"
   y1="875"
   x2="1670.7"
   y2="801.5"
   id="line8580" />
	<line
   class="st4"
   x1="1763.5"
   y1="800.4"
   x2="1856.2"
   y2="800.4"
   id="line8582" />
	<line
   class="st4"
   x1="1763.5"
   y1="875"
   x2="1763.5"
   y2="801.5"
   id="line8584" />
	<line
   class="st4"
   x1="1856.2"
   y1="800.4"
   x2="1950.1"
   y2="800.4"
   id="line8586" />
	<line
   class="st4"
   x1="1856.2"
   y1="875"
   x2="1856.2"
   y2="801.5"
   id="line8588" />
	<line
   class="st4"
   x1="1949"
   y1="875"
   x2="1949"
   y2="801.5"
   id="line8590" />
	<line
   class="st4"
   x1="863.7"
   y1="876.1"
   x2="1213.6"
   y2="876.1"
   id="line8592" />
	<line
   class="st4"
   x1="864.9"
   y1="950.7"
   x2="864.9"
   y2="877.3"
   id="line8594" />
	<line
   class="st4"
   x1="1213.6"
   y1="876.1"
   x2="1392.5"
   y2="876.1"
   id="line8596" />
	<line
   class="st4"
   x1="1213.6"
   y1="950.7"
   x2="1213.6"
   y2="877.3"
   id="line8598" />
	<line
   class="st4"
   x1="1392.5"
   y1="876.1"
   x2="1485.2"
   y2="876.1"
   id="line8600" />
	<line
   class="st4"
   x1="1392.5"
   y1="950.7"
   x2="1392.5"
   y2="877.3"
   id="line8602" />
	<line
   class="st4"
   x1="1485.2"
   y1="876.1"
   x2="1578"
   y2="876.1"
   id="line8604" />
	<line
   class="st4"
   x1="1485.2"
   y1="950.7"
   x2="1485.2"
   y2="877.3"
   id="line8606" />
	<line
   class="st4"
   x1="1578"
   y1="876.1"
   x2="1670.7"
   y2="876.1"
   id="line8608" />
	<line
   class="st4"
   x1="1578"
   y1="950.7"
   x2="1578"
   y2="877.3"
   id="line8610" />
	<line
   class="st4"
   x1="1670.7"
   y1="876.1"
   x2="1763.5"
   y2="876.1"
   id="line8612" />
	<line
   class="st4"
   x1="1670.7"
   y1="950.7"
   x2="1670.7"
   y2="877.3"
   id="line8614" />
	<line
   class="st4"
   x1="1763.5"
   y1="876.1"
   x2="1856.2"
   y2="876.1"
   id="line8616" />
	<line
   class="st4"
   x1="1763.5"
   y1="950.7"
   x2="1763.5"
   y2="877.3"
   id="line8618" />
	<line
   class="st4"
   x1="1856.2"
   y1="876.1"
   x2="1950.1"
   y2="876.1"
   id="line8620" />
	<line
   class="st4"
   x1="1856.2"
   y1="950.7"
   x2="1856.2"
   y2="877.3"
   id="line8622" />
	<line
   class="st4"
   x1="1949"
   y1="950.7"
   x2="1949"
   y2="877.3"
   id="line8624" />
	<line
   class="st4"
   x1="863.7"
   y1="951.9"
   x2="1213.6"
   y2="951.9"
   id="line8626" />
	<line
   class="st4"
   x1="864.9"
   y1="1005.4"
   x2="864.9"
   y2="953.1"
   id="line8628" />
	<line
   class="st4"
   x1="1213.6"
   y1="951.9"
   x2="1392.5"
   y2="951.9"
   id="line8630" />
	<line
   class="st4"
   x1="1213.6"
   y1="1005.4"
   x2="1213.6"
   y2="953.1"
   id="line8632" />
	<line
   class="st4"
   x1="1392.5"
   y1="951.9"
   x2="1485.2"
   y2="951.9"
   id="line8634" />
	<line
   class="st4"
   x1="1392.5"
   y1="1005.4"
   x2="1392.5"
   y2="953.1"
   id="line8636" />
	<line
   class="st4"
   x1="1485.2"
   y1="951.9"
   x2="1578"
   y2="951.9"
   id="line8638" />
	<line
   class="st4"
   x1="1485.2"
   y1="1005.4"
   x2="1485.2"
   y2="953.1"
   id="line8640" />
	<line
   class="st4"
   x1="1578"
   y1="951.9"
   x2="1670.7"
   y2="951.9"
   id="line8642" />
	<line
   class="st4"
   x1="1578"
   y1="1005.4"
   x2="1578"
   y2="953.1"
   id="line8644" />
	<line
   class="st4"
   x1="1670.7"
   y1="951.9"
   x2="1763.5"
   y2="951.9"
   id="line8646" />
	<line
   class="st4"
   x1="1670.7"
   y1="1005.4"
   x2="1670.7"
   y2="953.1"
   id="line8648" />
	<line
   class="st4"
   x1="1763.5"
   y1="951.9"
   x2="1856.2"
   y2="951.9"
   id="line8650" />
	<line
   class="st4"
   x1="1763.5"
   y1="1005.4"
   x2="1763.5"
   y2="953.1"
   id="line8652" />
	<line
   class="st4"
   x1="1856.2"
   y1="951.9"
   x2="1950.1"
   y2="951.9"
   id="line8654" />
	<line
   class="st4"
   x1="1856.2"
   y1="1005.4"
   x2="1856.2"
   y2="953.1"
   id="line8656" />
	<line
   class="st4"
   x1="1949"
   y1="1005.4"
   x2="1949"
   y2="953.1"
   id="line8658" />
	<line
   class="st4"
   x1="863.7"
   y1="1006.5"
   x2="1213.6"
   y2="1006.5"
   id="line8660" />
	<line
   class="st4"
   x1="864.9"
   y1="1060"
   x2="864.9"
   y2="1007.7"
   id="line8662" />
	<line
   class="st4"
   x1="1213.6"
   y1="1006.5"
   x2="1392.5"
   y2="1006.5"
   id="line8664" />
	<line
   class="st4"
   x1="1213.6"
   y1="1060"
   x2="1213.6"
   y2="1007.7"
   id="line8666" />
	<line
   class="st4"
   x1="1392.5"
   y1="1006.5"
   x2="1485.2"
   y2="1006.5"
   id="line8668" />
	<line
   class="st4"
   x1="1392.5"
   y1="1060"
   x2="1392.5"
   y2="1007.7"
   id="line8670" />
	<line
   class="st4"
   x1="1485.2"
   y1="1006.5"
   x2="1578"
   y2="1006.5"
   id="line8672" />
	<line
   class="st4"
   x1="1485.2"
   y1="1060"
   x2="1485.2"
   y2="1007.7"
   id="line8674" />
	<line
   class="st4"
   x1="1578"
   y1="1006.5"
   x2="1670.7"
   y2="1006.5"
   id="line8676" />
	<line
   class="st4"
   x1="1578"
   y1="1060"
   x2="1578"
   y2="1007.7"
   id="line8678" />
	<line
   class="st4"
   x1="1670.7"
   y1="1006.5"
   x2="1763.5"
   y2="1006.5"
   id="line8680" />
	<line
   class="st4"
   x1="1670.7"
   y1="1060"
   x2="1670.7"
   y2="1007.7"
   id="line8682" />
	<line
   class="st4"
   x1="1763.5"
   y1="1006.5"
   x2="1856.2"
   y2="1006.5"
   id="line8684" />
	<line
   class="st4"
   x1="1763.5"
   y1="1060"
   x2="1763.5"
   y2="1007.7"
   id="line8686" />
	<line
   class="st4"
   x1="1856.2"
   y1="1006.5"
   x2="1950.1"
   y2="1006.5"
   id="line8688" />
	<line
   class="st4"
   x1="1856.2"
   y1="1060"
   x2="1856.2"
   y2="1007.7"
   id="line8690" />
	<line
   class="st4"
   x1="1949"
   y1="1060"
   x2="1949"
   y2="1007.7"
   id="line8692" />
	<line
   class="st4"
   x1="863.7"
   y1="1061.2"
   x2="1213.6"
   y2="1061.2"
   id="line8694" />
	<line
   class="st4"
   x1="1213.6"
   y1="1061.2"
   x2="1392.5"
   y2="1061.2"
   id="line8696" />
	<line
   class="st4"
   x1="1392.5"
   y1="1061.2"
   x2="1485.2"
   y2="1061.2"
   id="line8698" />
	<line
   class="st4"
   x1="1485.2"
   y1="1061.2"
   x2="1578"
   y2="1061.2"
   id="line8700" />
	<line
   class="st4"
   x1="1578"
   y1="1061.2"
   x2="1670.7"
   y2="1061.2"
   id="line8702" />
	<line
   class="st4"
   x1="1670.7"
   y1="1061.2"
   x2="1763.5"
   y2="1061.2"
   id="line8704" />
	<line
   class="st4"
   x1="1763.5"
   y1="1061.2"
   x2="1856.2"
   y2="1061.2"
   id="line8706" />
	<line
   class="st4"
   x1="1856.2"
   y1="1061.2"
   x2="1950.1"
   y2="1061.2"
   id="line8708" />
	<line
   class="st4"
   x1="863.7"
   y1="383.9"
   x2="1213.6"
   y2="383.9"
   id="line8710" />
	<line
   class="st4"
   x1="864.9"
   y1="425.8"
   x2="864.9"
   y2="385.1"
   id="line8712" />
	<line
   class="st4"
   x1="1213.6"
   y1="383.9"
   x2="1392.5"
   y2="383.9"
   id="line8714" />
	<line
   class="st4"
   x1="1213.6"
   y1="425.8"
   x2="1213.6"
   y2="385.1"
   id="line8716" />
	<line
   class="st4"
   x1="864.9"
   y1="471.4"
   x2="864.9"
   y2="425.8"
   id="line8718" />
	<line
   class="st4"
   x1="1213.6"
   y1="471.4"
   x2="1213.6"
   y2="425.8"
   id="line8720" />
	<line
   class="st4"
   x1="863.7"
   y1="472.6"
   x2="1213.6"
   y2="472.6"
   id="line8722" />
	<line
   class="st4"
   x1="1213.6"
   y1="472.6"
   x2="1392.5"
   y2="472.6"
   id="line8724" />
	<line
   class="st4"
   x1="1392.5"
   y1="383.9"
   x2="1485.2"
   y2="383.9"
   id="line8726" />
	<line
   class="st4"
   x1="1392.5"
   y1="424.6"
   x2="1392.5"
   y2="385.1"
   id="line8728" />
	<line
   class="st4"
   x1="1485.2"
   y1="383.9"
   x2="1578"
   y2="383.9"
   id="line8730" />
	<line
   class="st4"
   x1="1578"
   y1="383.9"
   x2="1670.7"
   y2="383.9"
   id="line8732" />
	<line
   class="st4"
   x1="1670.7"
   y1="383.9"
   x2="1763.5"
   y2="383.9"
   id="line8734" />
	<line
   class="st4"
   x1="1763.5"
   y1="383.9"
   x2="1856.2"
   y2="383.9"
   id="line8736" />
	<line
   class="st4"
   x1="1763.5"
   y1="424.6"
   x2="1763.5"
   y2="385.1"
   id="line8738" />
	<line
   class="st4"
   x1="1856.2"
   y1="383.9"
   x2="1950.1"
   y2="383.9"
   id="line8740" />
	<line
   class="st4"
   x1="1949"
   y1="424.6"
   x2="1949"
   y2="385.1"
   id="line8742" />
	<line
   class="st4"
   x1="1391.3"
   y1="425.8"
   x2="1485.2"
   y2="425.8"
   id="line8744" />
	<line
   class="st4"
   x1="1392.5"
   y1="471.4"
   x2="1392.5"
   y2="426.9"
   id="line8746" />
	<line
   class="st4"
   x1="1485.2"
   y1="425.8"
   x2="1578"
   y2="425.8"
   id="line8748" />
	<line
   class="st4"
   x1="1485.2"
   y1="471.4"
   x2="1485.2"
   y2="426.9"
   id="line8750" />
	<line
   class="st4"
   x1="1578"
   y1="425.8"
   x2="1670.7"
   y2="425.8"
   id="line8752" />
	<line
   class="st4"
   x1="1578"
   y1="471.4"
   x2="1578"
   y2="426.9"
   id="line8754" />
	<line
   class="st4"
   x1="1670.7"
   y1="425.8"
   x2="1763.5"
   y2="425.8"
   id="line8756" />
	<line
   class="st4"
   x1="1670.7"
   y1="471.4"
   x2="1670.7"
   y2="426.9"
   id="line8758" />
	<line
   class="st4"
   x1="1763.5"
   y1="425.8"
   x2="1856.2"
   y2="425.8"
   id="line8760" />
	<line
   class="st4"
   x1="1763.5"
   y1="471.4"
   x2="1763.5"
   y2="426.9"
   id="line8762" />
	<line
   class="st4"
   x1="1856.2"
   y1="425.8"
   x2="1950.1"
   y2="425.8"
   id="line8764" />
	<line
   class="st4"
   x1="1856.2"
   y1="471.4"
   x2="1856.2"
   y2="426.9"
   id="line8766" />
	<line
   class="st4"
   x1="1949"
   y1="471.4"
   x2="1949"
   y2="426.9"
   id="line8768" />
	<line
   class="st4"
   x1="1392.5"
   y1="472.6"
   x2="1485.2"
   y2="472.6"
   id="line8770" />
	<line
   class="st4"
   x1="1485.2"
   y1="472.6"
   x2="1578"
   y2="472.6"
   id="line8772" />
	<line
   class="st4"
   x1="1578"
   y1="472.6"
   x2="1670.7"
   y2="472.6"
   id="line8774" />
	<line
   class="st4"
   x1="1670.7"
   y1="472.6"
   x2="1763.5"
   y2="472.6"
   id="line8776" />
	<line
   class="st4"
   x1="1763.5"
   y1="472.6"
   x2="1856.2"
   y2="472.6"
   id="line8778" />
	<line
   class="st4"
   x1="1856.2"
   y1="472.6"
   x2="1950.1"
   y2="472.6"
   id="line8780" />
	<text
   transform="matrix(1 0 0 1 974.3001 439.8259)"
   id="text8796"><tspan
     x="0"
     y="0"
     class="st5 st6 st7"
     id="tspan8782">P</tspan><tspan
     x="19.2"
     y="0"
     class="st5 st6 st7"
     id="tspan8784">r</tspan><tspan
     x="33.1"
     y="0"
     class="st5 st6 st7"
     id="tspan8786">o</tspan><tspan
     x="53"
     y="0"
     class="st5 st6 st7"
     id="tspan8788">j</tspan><tspan
     x="61.5"
     y="0"
     class="st5 st6 st7"
     id="tspan8790">ec</tspan><tspan
     x="99"
     y="0"
     class="st5 st6 st7"
     id="tspan8792">t</tspan></text>

	<text
   id="text8816"
   x="1250.9379"
   y="437.34549"><tspan
     x="1250.9379"
     y="437.34549"
     class="st5 st8 st9"
     id="tspan8798"
     style="font-size:25.70879936px;font-family:Apercu-Light;fill:#ffffff">Budget</tspan></text>

	<text
   transform="matrix(1 0 0 1 1542.2689 416.408)"
   id="text8826"><tspan
     x="0"
     y="0"
     class="st5 st6 st7"
     id="tspan8818">2</tspan><tspan
     x="18.7"
     y="0"
     class="st5 st6 st7 st10"
     id="tspan8820">0</tspan><tspan
     x="38.6"
     y="0"
     class="st5 st6 st7"
     id="tspan8822">1</tspan><tspan
     x="52"
     y="0"
     class="st5 st6 st7"
     id="tspan8824">8</tspan></text>

	<text
   transform="matrix(1 0 0 1 1820.7181 416.408)"
   id="text8836"><tspan
     x="0"
     y="0"
     class="st5 st6 st7"
     id="tspan8828">2</tspan><tspan
     x="18.7"
     y="0"
     class="st5 st6 st7 st10"
     id="tspan8830">0</tspan><tspan
     x="38.6"
     y="0"
     class="st5 st6 st7"
     id="tspan8832">1</tspan><tspan
     x="51.7"
     y="0"
     class="st5 st6 st7"
     id="tspan8834">9</tspan></text>

	<text
   transform="matrix(1 0 0 1 1422.8392 460.7439)"
   id="text8842"><tspan
     x="0"
     y="0"
     class="st5 st6 st7"
     id="tspan8838">T</tspan><tspan
     x="18.5"
     y="0"
     class="st5 st6 st7"
     id="tspan8840">1</tspan></text>

	<text
   transform="matrix(1 0 0 1 1513.3763 460.7439)"
   class="st5 st6 st7"
   id="text8844">T2</text>

	<text
   transform="matrix(1 0 0 1 1605.976 460.7439)"
   class="st5 st6 st7"
   id="text8846">T3</text>

	<text
   transform="matrix(1 0 0 1 1699.6205 460.7439)"
   id="text8852"><tspan
     x="0"
     y="0"
     class="st5 st6 st7 st11"
     id="tspan8848">T</tspan><tspan
     x="14.9"
     y="0"
     class="st5 st6 st7"
     id="tspan8850">4</tspan></text>

	<text
   transform="matrix(1 0 0 1 1793.8549 460.7439)"
   id="text8858"><tspan
     x="0"
     y="0"
     class="st5 st6 st7"
     id="tspan8854">T</tspan><tspan
     x="18.5"
     y="0"
     class="st5 st6 st7"
     id="tspan8856">1</tspan></text>

	<text
   transform="matrix(1 0 0 1 1884.3939 460.7439)"
   class="st5 st6 st7"
   id="text8860">T2</text>

	<text
   transform="matrix(1 0 0 1 878.1605 508.1814)"
   id="text8906"><tspan
     x="0"
     y="0"
     class="st12 st8 st13"
     id="tspan8862">The Municipal Data Office</tspan></text>

	<text
   transform="matrix(1 0 0 1 1270.9916 508.1814)"
   id="text8918"><tspan
     x="0"
     y="0"
     class="st12 st6 st13"
     id="tspan8908">6</tspan><tspan
     x="13.9"
     y="0"
     class="st12 st6 st13"
     id="tspan8910">8</tspan><tspan
     x="27.6"
     y="0"
     class="st12 st6 st13"
     id="tspan8912">0</tspan><tspan
     x="42.9"
     y="0"
     class="st12 st6 st13"
     id="tspan8914"> </tspan><tspan
     x="49.1"
     y="0"
     class="st12 st6 st13"
     id="tspan8916">K</tspan></text>

	<text
   transform="matrix(1 0 0 1 878.1605 562.7986)"
   id="text8946"><tspan
     x="0"
     y="0"
     class="st12 st8 st13"
     id="tspan8920">City OS Services</tspan></text>

	<text
   transform="matrix(1 0 0 1 1265.2181 562.7986)"
   id="text8962"><tspan
     x="0"
     y="0"
     class="st12 st6 st13"
     id="tspan8948">1</tspan><tspan
     x="9.6"
     y="0"
     class="st12 st6 st13"
     id="tspan8950">.</tspan><tspan
     x="17.6"
     y="0"
     class="st12 st6 st13"
     id="tspan8952">1</tspan><tspan
     x="27.3"
     y="0"
     class="st12 st6 st13"
     id="tspan8954">3</tspan><tspan
     x="40.5"
     y="0"
     class="st12 st6 st13"
     id="tspan8956">2</tspan><tspan
     x="54.4"
     y="0"
     class="st12 st6 st13"
     id="tspan8958"> </tspan><tspan
     x="60.6"
     y="0"
     class="st12 st6 st13"
     id="tspan8960">K</tspan></text>

	<text
   transform="matrix(1 0 0 1 878.1605 617.4177)"
   id="text8988"><tspan
     x="0"
     y="0"
     class="st12 st8 st13"
     id="tspan8964">B</tspan><tspan
     x="13.9"
     y="0"
     class="st12 st8 st13"
     id="tspan8966">C</tspan><tspan
     x="29.3"
     y="0"
     class="st12 st8 st13"
     id="tspan8968">N</tspan><tspan
     x="45.2"
     y="0"
     class="st12 st8 st13"
     id="tspan8970"> </tspan><tspan
     x="50.7"
     y="0"
     class="st12 st8 st13"
     id="tspan8972">O</tspan><tspan
     x="66.9"
     y="0"
     class="st12 st8 st13"
     id="tspan8974">p</tspan><tspan
     x="80.8"
     y="0"
     class="st12 st8 st13"
     id="tspan8976">e</tspan><tspan
     x="93.2"
     y="0"
     class="st12 st8 st13"
     id="tspan8978">n </tspan><tspan
     x="111.9"
     y="0"
     class="st12 st8 st13"
     id="tspan8980">D</tspan><tspan
     x="127"
     y="0"
     class="st12 st8 st13"
     id="tspan8982">a</tspan><tspan
     x="138.3"
     y="0"
     class="st12 st8 st13"
     id="tspan8984">t</tspan><tspan
     x="146.5"
     y="0"
     class="st12 st8 st13"
     id="tspan8986">a</tspan></text>

	<text
   transform="matrix(1 0 0 1 1278.4701 617.4177)"
   id="text8998"><tspan
     x="0"
     y="0"
     class="st12 st6 st13"
     id="tspan8990">5</tspan><tspan
     x="13.7"
     y="0"
     class="st12 st6 st13"
     id="tspan8992">6</tspan><tspan
     x="27.9"
     y="0"
     class="st12 st6 st13"
     id="tspan8994"> </tspan><tspan
     x="34.1"
     y="0"
     class="st12 st6 st13"
     id="tspan8996">K</tspan></text>

	<text
   transform="matrix(1 0 0 1 878.1605 672.0388)"
   id="text9012"><tspan
     x="0"
     y="0"
     class="st12 st8 st13"
     id="tspan9000">D</tspan><tspan
     x="15.4"
     y="0"
     class="st12 st8 st13"
     id="tspan9002">E</tspan><tspan
     x="28.7"
     y="0"
     class="st12 st8 st13"
     id="tspan9004">C</tspan><tspan
     x="45.1"
     y="0"
     class="st12 st8 st13"
     id="tspan9006">O</tspan><tspan
     x="62.2"
     y="0"
     class="st12 st8 st13"
     id="tspan9008">D</tspan><tspan
     x="77.6"
     y="0"
     class="st12 st8 st13"
     id="tspan9010">E</tspan></text>

	<text
   transform="matrix(1 0 0 1 1271.1781 672.0388)"
   id="text9020"><tspan
     x="0"
     y="0"
     class="st12 st6 st13"
     id="tspan9014">5</tspan><tspan
     x="13.8"
     y="0"
     class="st12 st6 st13"
     id="tspan9016">45 </tspan><tspan
     x="48.7"
     y="0"
     class="st12 st6 st13"
     id="tspan9018">K</tspan></text>

	<text
   transform="matrix(1 0 0 1 878.1605 726.658)"
   id="text9056"><tspan
     x="0"
     y="0"
     class="st12 st8 st13"
     id="tspan9022">D</tspan><tspan
     x="16"
     y="0"
     class="st12 st8 st13"
     id="tspan9024">a</tspan><tspan
     x="28.3"
     y="0"
     class="st12 st8 st13"
     id="tspan9026">t</tspan><tspan
     x="37.4"
     y="0"
     class="st12 st8 st13"
     id="tspan9028">a </tspan><tspan
     x="56.3"
     y="0"
     class="st12 st8 st13"
     id="tspan9030">C</tspan><tspan
     x="72.2"
     y="0"
     class="st12 st8 st13"
     id="tspan9032">i</tspan><tspan
     x="78.9"
     y="0"
     class="st12 st8 st13"
     id="tspan9034">t</tspan><tspan
     x="88.4"
     y="0"
     class="st12 st8 st13"
     id="tspan9036">y </tspan><tspan
     x="106.1"
     y="0"
     class="st12 st8 st13"
     id="tspan9038">C</tspan><tspan
     x="122.2"
     y="0"
     class="st12 st8 st13"
     id="tspan9040">h</tspan><tspan
     x="136.1"
     y="0"
     class="st12 st8 st13"
     id="tspan9042">a</tspan><tspan
     x="148.1"
     y="0"
     class="st12 st8 st13"
     id="tspan9044">l</tspan><tspan
     x="153.5"
     y="0"
     class="st12 st8 st13"
     id="tspan9046">l</tspan><tspan
     x="159.4"
     y="0"
     class="st12 st8 st13"
     id="tspan9048">e</tspan><tspan
     x="172.7"
     y="0"
     class="st12 st8 st13"
     id="tspan9050">n</tspan><tspan
     x="186.4"
     y="0"
     class="st12 st8 st13"
     id="tspan9052">g</tspan><tspan
     x="198.4"
     y="0"
     class="st12 st8 st13"
     id="tspan9054">e</tspan></text>

	<text
   transform="matrix(1 0 0 1 1272.9779 726.658)"
   id="text9068"><tspan
     x="0"
     y="0"
     class="st12 st6 st13"
     id="tspan9058">1</tspan><tspan
     x="9.9"
     y="0"
     class="st12 st6 st13"
     id="tspan9060">8</tspan><tspan
     x="23.6"
     y="0"
     class="st12 st6 st13"
     id="tspan9062">0</tspan><tspan
     x="38.9"
     y="0"
     class="st12 st6 st13"
     id="tspan9064"> </tspan><tspan
     x="45.1"
     y="0"
     class="st12 st6 st13"
     id="tspan9066">K</tspan></text>

	<text
   transform="matrix(1 0 0 1 878.1605 782.156)"
   id="text9098"><tspan
     x="0"
     y="0"
     class="st12 st8 st9"
     id="tspan9070">B</tspan><tspan
     x="16.3"
     y="0"
     class="st12 st8 st9"
     id="tspan9072">C</tspan><tspan
     x="34.2"
     y="0"
     class="st12 st8 st9"
     id="tspan9074">N </tspan><tspan
     x="59.8"
     y="0"
     class="st12 st8 st9"
     id="tspan9076">D</tspan><tspan
     x="77.4"
     y="0"
     class="st12 st8 st9"
     id="tspan9078">a</tspan><tspan
     x="90.9"
     y="0"
     class="st12 st8 st9"
     id="tspan9080">t</tspan><tspan
     x="100.9"
     y="0"
     class="st12 st8 st9"
     id="tspan9082">a E</tspan><tspan
     x="136.9"
     y="0"
     class="st12 st8 st9"
     id="tspan9084">x</tspan><tspan
     x="148.7"
     y="0"
     class="st12 st8 st9"
     id="tspan9086">c</tspan><tspan
     x="162.5"
     y="0"
     class="st12 st8 st9"
     id="tspan9088">h</tspan><tspan
     x="177.8"
     y="0"
     class="st12 st8 st9"
     id="tspan9090">a</tspan><tspan
     x="190.9"
     y="0"
     class="st12 st8 st9"
     id="tspan9092">n</tspan><tspan
     x="206"
     y="0"
     class="st12 st8 st9"
     id="tspan9094">g</tspan><tspan
     x="219.2"
     y="0"
     class="st12 st8 st9"
     id="tspan9096">e</tspan></text>

	<text
   transform="matrix(1 0 0 1 1272.9574 781.3298)"
   id="text9110"><tspan
     x="0"
     y="0"
     class="st12 st6 st13"
     id="tspan9100">1</tspan><tspan
     x="9.7"
     y="0"
     class="st12 st6 st13"
     id="tspan9102">3</tspan><tspan
     x="23.7"
     y="0"
     class="st12 st6 st13"
     id="tspan9104">0</tspan><tspan
     x="38.9"
     y="0"
     class="st12 st6 st13"
     id="tspan9106"> </tspan><tspan
     x="45.1"
     y="0"
     class="st12 st6 st13"
     id="tspan9108">K</tspan></text>

	<text
   transform="matrix(1 0 0 1 878.1634 830.1755)"
   id="text9158"><tspan
     x="0"
     y="0"
     class="st12 st8 st13"
     id="tspan9112">Municipal Management</tspan></text>

	<text
   transform="matrix(1 0 0 1 878.1634 862.8962)"
   id="text9204"><tspan
     x="0"
     y="0"
     class="st12 st8 st13"
     id="tspan9160">Dashboard</tspan></text>

	<text
   transform="matrix(1 0 0 1 1271.6488 846.5369)"
   id="text9216"><tspan
     x="0"
     y="0"
     class="st12 st6 st13"
     id="tspan9206">2</tspan><tspan
     x="13.6"
     y="0"
     class="st12 st6 st13"
     id="tspan9208">3</tspan><tspan
     x="27.6"
     y="0"
     class="st12 st6 st13"
     id="tspan9210">5</tspan><tspan
     x="41.6"
     y="0"
     class="st12 st6 st13"
     id="tspan9212"> </tspan><tspan
     x="47.7"
     y="0"
     class="st12 st6 st13"
     id="tspan9214">K</tspan></text>

	<text
   transform="matrix(1 0 0 1 878.1634 922.3064)"
   id="text9264"><tspan
     x="0"
     y="0"
     class="st12 st8 st13"
     id="tspan9218">Monitoring gentrification</tspan></text>

	<text
   id="text9280"
   x="1270.7915"
   y="907.63892"><tspan
     x="1270.7915"
     y="907.63892"
     class="st12 st6 st13"
     id="tspan9266"
     style="font-size:23.37170029px;font-family:Apercu-Bold;fill:#1d1d1b">Own</tspan></text>

	<text
   id="text9294"
   x="1247.8396"
   y="933.59186"><tspan
     x="1247.8396"
     y="933.59186"
     class="st12 st6 st13"
     id="tspan9282"
     style="font-size:23.37170029px;font-family:Apercu-Bold;fill:#1d1d1b">resources</tspan></text>

	<text
   transform="matrix(1 0 0 1 878.1634 987.5154)"
   id="text9316"><tspan
     x="0"
     y="0"
     class="st12 st8 st13"
     id="tspan9296">C</tspan><tspan
     x="16.3"
     y="0"
     class="st12 st8 st13"
     id="tspan9298">e</tspan><tspan
     x="29.6"
     y="0"
     class="st12 st8 st13"
     id="tspan9300">n</tspan><tspan
     x="42.8"
     y="0"
     class="st12 st8 st13"
     id="tspan9302">s</tspan><tspan
     x="53.6"
     y="0"
     class="st12 st8 st13"
     id="tspan9304">us / EIAE</tspan></text>

	<text
   transform="matrix(1 0 0 1 1270.2699 987.5154)"
   id="text9326"><tspan
     x="0"
     y="0"
     class="st12 st6 st13"
     id="tspan9318">5</tspan><tspan
     x="13.7"
     y="0"
     class="st12 st6 st13"
     id="tspan9320">00</tspan><tspan
     x="44.3"
     y="0"
     class="st12 st6 st13"
     id="tspan9322"> </tspan><tspan
     x="50.4"
     y="0"
     class="st12 st6 st13"
     id="tspan9324">K</tspan></text>

	<text
   transform="matrix(1 0 0 1 878.1634 1042.1345)"
   id="text9374"><tspan
     x="0"
     y="0"
     class="st12 st8 st13"
     id="tspan9328">Housing Observatory</tspan></text>

	<text
   transform="matrix(1 0 0 1 1271.6263 1042.1345)"
   id="text9386"><tspan
     x="0"
     y="0"
     class="st12 st6 st13"
     id="tspan9376">3</tspan><tspan
     x="13.7"
     y="0"
     class="st12 st6 st13"
     id="tspan9378">4</tspan><tspan
     x="27.5"
     y="0"
     class="st12 st6 st13"
     id="tspan9380">9</tspan><tspan
     x="41.6"
     y="0"
     class="st12 st6 st13"
     id="tspan9382"> </tspan><tspan
     x="47.8"
     y="0"
     class="st12 st6 st13"
     id="tspan9384">K</tspan></text>

	<rect
   x="1401.3"
   y="482.3"
   class="st14"
   width="347.7"
   height="33.1"
   id="rect9388" />
	<rect
   x="1401.3"
   y="963.1"
   class="st14"
   width="347.7"
   height="33.1"
   id="rect9390" />
	<rect
   x="1401.3"
   y="1017.4"
   class="st14"
   width="347.7"
   height="33.1"
   id="rect9392" />
	<rect
   x="1401.3"
   y="817.7"
   class="st14"
   width="256.3"
   height="33.1"
   id="rect9394" />
	<rect
   x="1401.3"
   y="758"
   class="st14"
   width="164.6"
   height="33.1"
   id="rect9396" />
	<rect
   x="1401.3"
   y="647.1"
   class="st14"
   width="347.7"
   height="33.1"
   id="rect9398" />
	<rect
   x="1401.3"
   y="899.3"
   class="st14"
   width="441.8"
   height="33.1"
   id="rect9400" />
	<rect
   x="1401.3"
   y="703"
   class="st14"
   width="441.8"
   height="33.1"
   id="rect9402" />
	<rect
   x="1401.3"
   y="537.8"
   class="st14"
   width="536.7"
   height="33.1"
   id="rect9404" />
	<rect
   x="1401.3"
   y="592"
   class="st14"
   width="536.7"
   height="33.1"
   id="rect9406" />
</g>
</svg>